PathFileType	4	(X/Y/Z)	S01_0019_Gait_markers.trc
DataRate	CameraRate	NumFrames	NumMarkers	Units	OrigDataRate	OrigDataStartFrame	OrigNumFrames
250.000000	250.000000	4	54	mm	250.000000	317	363
Frame#	Time	HEAD_ANT			R_HEAD			L_HEAD			C7			R_BACK			L_BACK			STERNUM			R_ACROMION			R_HUM_PROX			R_HUM_ANT			R_HUM_POST			R_ELBOW_LAT			R_ELBOW_MED			R_FOREARM			R_WIRST_LAT			R_WRITS_MED			R_HAND			L_ACROMION			L_HUM_PROX			L_HUM_ANT			L_HUM_POST			L_ELBOW_LAT			L_ELBOW_MED			L_FOREARM			L_WRIST_LAT			L_WIRST_MED			L_HAND			R_ILIAC			SACRUM			L_ILIAC			R_GTROCH			R_THIGH__1			R_THIGH_2			R_THIGH_3			R_THIGH_4			R_SHANK_1			R_SHANK_2			R_SHANK_3			R_SHANK_4			R_HEEL			R_FOOT_LAT			R_FOOT_MED			L_GTROCH			L_THIGH_1			L_THIGH_2			L_THIGH_3			L_THIGH_4			L_SHANK_1			L_SHANK_2			L_SHANK_3			L_SHANK_4			L_HEEL			L_FOOT_LAT			L_FOOT_MED			
		X1	Y1	Z1	X2	Y2	Z2	X3	Y3	Z3	X4	Y4	Z4	X5	Y5	Z5	X6	Y6	Z6	X7	Y7	Z7	X8	Y8	Z8	X9	Y9	Z9	X10	Y10	Z10	X11	Y11	Z11	X12	Y12	Z12	X13	Y13	Z13	X14	Y14	Z14	X15	Y15	Z15	X16	Y16	Z16	X17	Y17	Z17	X18	Y18	Z18	X19	Y19	Z19	X20	Y20	Z20	X21	Y21	Z21	X22	Y22	Z22	X23	Y23	Z23	X24	Y24	Z24	X25	Y25	Z25	X26	Y26	Z26	X27	Y27	Z27	X28	Y28	Z28	X29	Y29	Z29	X30	Y30	Z30	X31	Y31	Z31	X32	Y32	Z32	X33	Y33	Z33	X34	Y34	Z34	X35	Y35	Z35	X36	Y36	Z36	X37	Y37	Z37	X38	Y38	Z38	X39	Y39	Z39	X40	Y40	Z40	X41	Y41	Z41	X42	Y42	Z42	X43	Y43	Z43	X44	Y44	Z44	X45	Y45	Z45	X46	Y46	Z46	X47	Y47	Z47	X48	Y48	Z48	X49	Y49	Z49	X50	Y50	Z50	X51	Y51	Z51	X52	Y52	Z52	X53	Y53	Z53	X54	Y54	Z54	

318	1.268	1795.64306640625	1707.32421875	-300.9147033691402	1736.591796875	1654.146606445312	-224.645599365234	1736.760986328125	1657.564453125	-370.8255615234372	1600.285278320312	1485.14111328125	-302.467864990234	1530.667114257812	1285.764038085938	-244.026916503906	1533.1259765625	1293.364501953125	-382.131896972656	1782.999389648438	1323.82421875	-296.4637451171872	1669.419799804688	1432.619995117188	-128.3423461914059	1627.199462890625	1271.833374023438	-41.93519210815401	1688.29833984375	1186.114379882812	-36.32181167602513	1566.8271484375	1189.135375976562	-30.92757225036595	1612.135375976562	1081.54296875	-22.54299545288062	1588.796264648438	1078.12451171875	-102.1930847167966	1720.136840820312	900.5498657226562	-33.04410552978496	1757.087890625	837.1312255859375	-77.70466613769513	1693.290283203125	810.7561645507812	-35.18753433227521	1764.706176757812	745.3665161132812	-29.84170913696272	1691.61083984375	1442.171997070312	-465.7392883300778	1682.371459960938	1278.570068359375	-564.7911376953123	1748.261474609375	1201.218627929688	-561.7427978515623	1629.415161132812	1199.37548828125	-597.3702392578123	1693.829345703125	1097.99365234375	-605.2677001953123	1637.305908203125	1084.547485351563	-551.116516113281	1827.042602539062	944.3248901367189	-566.4180908203123	1860.473876953125	892.5840454101564	-509.3632202148436	1831.041625976562	859.7981567382814	-573.815490722656	1914.313598632812	821.2739868164064	-546.166809082031	1673.3896484375	1039.985229492188	-135.6677551269529	1551.946533203125	1011.050170898438	-305.2351074218748	1672.321899414062	1034.660522460938	-479.5189208984373	1648.060424804688	887.5549926757812	-122.2663955688475	1777.462768554688	625.476318359375	-150.2669525146483	1825.300048828125	660.1130981445312	-145.6382446289061	1863.801513671875	567.4539184570312	-185.5174713134764	1802.495361328125	550.4558715820312	-173.8700714111327	1862.291381835938	333.7327880859376	-173.5235900878905	1920.506469726562	330.3655090332032	-189.6549377441405	1941.464233398438	248.6342926025391	-208.2310943603515	1878.819213867188	235.1952362060547	-196.131362915039	1899.3193359375	32.84856414794928	-282.5054931640625	2063.102294921875	36.1860618591309	-202.4543609619141	2110.163818359375	68.95542907714851	-289.2837829589844	1624.846313476562	929.0779418945314	-482.8885498046873	1629.36669921875	634.3363647460939	-466.2984619140624	1584.199096679688	669.0170898437501	-481.7250976562498	1541.204833984375	576.6267089843751	-452.9916381835936	1602.033813476562	560.3781738281251	-442.4917907714843	1430.7060546875	330.5727844238282	-431.3284912109374	1372.293579101562	344.2507629394532	-440.2310485839843	1321.642333984375	275.7089233398439	-421.9277343749999	1377.307495117188	246.5049438476563	-408.7449645996093	1180.489013671875	147.2154998779298	-351.1568603515624	1314.838500976562	24.31191444396982	-401.7672119140625	1345.263061523438	28.13801193237311	-294.0188598632812	
319	1.272	1801.568603515625	1707.547607421875	-300.3013305664059	1742.61962890625	1654.179443359375	-224.0960693359371	1742.68603515625	1657.594482421875	-370.2102661132809	1606.413940429688	1484.9453125	-301.6228027343747	1537.136840820312	1285.613525390625	-243.6559448242185	1539.368774414062	1293.256103515625	-381.0768737792966	1787.837768554688	1323.74609375	-293.4838867187497	1675.647216796875	1432.491088867188	-127.7086181640622	1633.4697265625	1271.548461914062	-41.46243286132784	1694.571655273438	1185.816650390625	-35.7110633850095	1572.997314453125	1188.846923828125	-30.60454559326146	1618.241577148438	1081.283447265625	-22.29155921936011	1595.151977539062	1077.76953125	-101.6817550659177	1726.396606445312	900.2694091796875	-32.74704742431621	1763.47998046875	836.890869140625	-77.81217193603497	1699.496215820312	810.4407958984375	-35.07347106933576	1770.94921875	744.9830932617188	-29.83165931701643	1697.553955078125	1442.163452148438	-465.2947082519528	1688.204956054688	1278.514404296875	-564.2629394531248	1753.946166992188	1200.924926757813	-561.4147949218748	1634.812133789062	1199.6240234375	-596.7600097656248	1699.23193359375	1097.967651367188	-604.847717285156	1642.802490234375	1084.441772460938	-550.354309082031	1831.953002929688	943.7990112304689	-566.6499023437498	1865.3388671875	891.9313964843751	-509.5897216796873	1835.865600585938	859.2689819335939	-573.9968261718748	1918.871215820312	820.4075927734376	-546.5687866210935	1680.595825195312	1039.789916992188	-135.0822601318357	1558.450439453125	1011.437744140625	-305.3084411621091	1679.124755859375	1034.40087890625	-479.5663452148435	1655.138549804688	887.5225830078125	-121.7450408935545	1784.463012695312	626.5343627929688	-150.7400512695311	1832.246948242188	660.9624633789062	-146.7137603759764	1870.08349609375	567.7718505859375	-186.2351837158202	1808.022094726562	551.0267944335938	-174.4975585937499	1868.205688476562	334.7553710937501	-174.2024841308593	1926.583740234375	330.7287902832032	-189.9811706542968	1946.961181640625	248.9685058593751	-208.8090057373046	1884.35595703125	236.2690429687501	-196.8574829101562	1900.607055664062	33.66365432739264	-282.1199340820312	2065.1162109375	33.96833419799809	-202.6720733642578	2112.212890625	66.40689849853523	-289.2974548339844	1631.5224609375	928.5584716796876	-482.679260253906	1637.39111328125	633.9096069335939	-466.2909851074218	1592.1142578125	668.4694824218751	-481.2983093261717	1549.218505859375	575.6063842773439	-452.9384155273436	1610.278564453125	559.1966552734376	-443.3757934570311	1436.98046875	330.7603454589845	-431.4391784667968	1378.759521484375	345.3407287597657	-440.7044067382812	1326.972412109375	277.423065185547	-422.2266845703124	1382.147705078125	247.6401672363282	-409.1830444335937	1184.356079101562	151.4530792236329	-351.7701721191406	1315.614135742188	25.06887054443368	-401.6232604980469	1345.609985351562	28.28450393676764	-294.1974182128906	
320	1.276	1807.573120117188	1707.854736328125	-299.8569030761715	1748.709716796875	1654.402221679688	-223.4365692138668	1748.7568359375	1657.833618164062	-369.6457519531247	1612.676513671875	1485.016357421875	-300.9284362792965	1542.924560546875	1285.671752929688	-243.2518005371091	1545.749145507812	1293.158569335938	-380.2163391113278	1794.285278320312	1323.937622070312	-292.9272155761716	1682.104736328125	1432.41650390625	-127.0999908447262	1639.724243164062	1271.3935546875	-40.86440277099581	1700.783081054688	1185.661865234375	-35.16850662231419	1579.235107421875	1188.58056640625	-30.3404693603513	1624.116455078125	1080.928955078125	-21.94065666198706	1601.45654296875	1077.493286132812	-101.2980117797849	1732.703979492188	900.0127563476562	-32.50717926025371	1769.890625	836.6435546875	-77.67380523681622	1705.675659179688	810.2278442382812	-34.98163223266584	1777.353271484375	744.8268432617188	-29.97603797912581	1703.716186523438	1442.231323242188	-464.8444824218747	1693.9619140625	1278.582275390625	-563.809387207031	1759.353149414062	1200.776245117188	-561.022033691406	1640.495727539062	1199.681274414063	-596.250061035156	1704.415771484375	1097.930419921875	-604.4356689453123	1648.051147460938	1084.644165039063	-549.8997802734373	1836.831909179688	943.3447265625001	-566.8546752929685	1870.266845703125	891.2864379882814	-509.8079528808592	1840.531616210938	858.7969970703126	-574.2975463867185	1923.48388671875	819.7743530273439	-546.8136596679685	1687.744750976562	1039.753540039062	-134.774230957031	1565.140991210938	1011.877685546875	-305.4266662597654	1686.285034179688	1034.13671875	-479.4936828613279	1662.192504882812	887.7072143554688	-121.3203811645506	1791.325439453125	627.4393920898438	-151.2115020751952	1839.262329101562	661.784423828125	-147.8198394775389	1876.58642578125	568.44775390625	-186.9940032958983	1814.6904296875	552.0020751953125	-174.9719390869139	1874.175170898438	335.5302429199219	-175.0262908935546	1933.125854492188	331.5942077636719	-190.3629302978515	1952.432983398438	249.183578491211	-209.1712036132812	1889.691284179688	237.1656341552735	-196.8805084228515	1901.582885742188	34.34366989135749	-281.7515258789062	2066.253173828125	32.14398193359379	-202.3181304931641	2114.07470703125	63.5257530212403	-289.7262268066406	1638.09228515625	928.1475830078126	-482.3061218261716	1645.195678710938	633.0057983398439	-466.2129516601561	1599.933227539062	667.2915649414064	-481.2308959960936	1557.334106445312	574.5379028320314	-452.8778381347655	1618.484008789062	558.5254516601564	-442.6718139648436	1443.523193359375	330.8627929687501	-431.8588867187499	1385.575561523438	346.3956909179689	-441.0369873046874	1332.833862304688	279.1949768066407	-422.8372497558593	1387.541870117188	248.5280303955079	-409.6101989746093	1188.592163085938	155.7433471679688	-352.2343749999999	1316.417602539062	25.78701782226571	-401.5515747070312	1345.920166015625	28.40646171569831	-294.2713928222656	
321	1.28	1813.49609375	1708.201293945312	-299.2695312499996	1755.288330078125	1654.80224609375	-222.1442565917965	1754.600708007812	1658.128173828125	-369.1188354492184	1618.976806640625	1485.193603515625	-300.3199462890622	1549.317993164062	1285.659545898438	-242.8470306396482	1552.203491210938	1293.264892578125	-379.421203613281	1802.3818359375	1324.67919921875	-294.9709472656247	1688.417358398438	1432.500732421875	-126.4225311279294	1646.180297851562	1271.354125976562	-40.35638809204073	1707.259643554688	1185.56005859375	-34.70272827148411	1585.367431640625	1188.348022460938	-30.02005577087376	1631.194580078125	1080.820190429688	-21.58820724487281	1607.569091796875	1077.314086914062	-100.8855209350584	1739.121215820312	899.9307250976562	-32.2784309387205	1776.387084960938	836.6515502929688	-77.29917144775372	1711.88916015625	809.9697875976562	-35.18711471557599	1783.809448242188	744.7478637695312	-29.85078239440901	1709.932495117188	1442.455078125	-464.2503967285153	1699.6455078125	1278.686157226563	-563.2678222656248	1764.816162109375	1200.578247070313	-560.784484863281	1645.904174804688	1199.957885742188	-595.8013916015623	1709.325439453125	1098.091674804688	-604.0769042968748	1653.638549804688	1084.514404296875	-549.2425537109373	1841.75244140625	943.0112304687501	-567.040344238281	1875.106567382812	890.7358398437501	-510.0734558105467	1845.026611328125	858.4495239257814	-574.5172729492185	1928.079223632812	819.0576171875001	-547.1750488281248	1694.544067382812	1039.595458984375	-134.445861816406	1571.870361328125	1012.297302246094	-305.4376525878904	1693.420532226562	1034.174682617188	-479.4672851562498	1669.253540039062	888.072021484375	-120.9205551147459	1798.370361328125	628.5855102539062	-151.9100189208983	1846.245971679688	663.0216674804688	-148.5980987548827	1883.317504882812	569.400146484375	-187.7531890869139	1821.613403320312	553.2626953125	-174.9768524169921	1880.687622070312	336.7669677734376	-174.651382446289	1939.253051757812	332.1745605468751	-190.9380645751952	1957.641235351562	249.5065917968751	-209.5954132080078	1894.854736328125	237.8871002197266	-196.4452056884765	1902.430908203125	35.103988647461	-281.581298828125	2066.891845703125	30.46345901489262	-201.9701385498047	2115.50244140625	60.44300460815436	-290.1431274414062	1644.963623046875	927.8084106445314	-481.9807434082029	1653.58837890625	632.3185424804689	-465.9555053710936	1607.987915039062	666.4462280273439	-480.934356689453	1565.637451171875	573.4653930664064	-452.750518798828	1627.026123046875	557.4967041015626	-443.6318359374999	1450.583862304688	331.1997375488282	-433.1448974609374	1392.3544921875	347.2874755859376	-441.4157409667968	1338.740356445312	281.0017395019532	-423.1110534667968	1393.031372070312	249.4164581298829	-409.8090820312499	1193.30615234375	160.0746612548829	-352.7925415039062	1317.262451171875	26.59190368652353	-401.5484313964844	1346.231811523438	28.60370254516608	-294.265869140625	
